<?xml version="1.0" encoding="UTF-8"?>
<svg xmlns="http://www.w3.org/2000/svg" width="1200" height="1200" viewBox="0 0 1200 1200" fill="none">
  <defs>
    <linearGradient id="bg" x1="120" y1="100" x2="1020" y2="1080" gradientUnits="userSpaceOnUse">
      <stop stop-color="#3b0d1b"/>
      <stop offset="1" stop-color="#7c1736"/>
    </linearGradient>
    <radialGradient id="glow" cx="0" cy="0" r="1" gradientUnits="userSpaceOnUse" gradientTransform="translate(377 237) rotate(90) scale(420 420)">
      <stop stop-color="#ffd7a1" stop-opacity="0.58"/>
      <stop offset="1" stop-color="#ffd7a1" stop-opacity="0"/>
    </radialGradient>
    <linearGradient id="panel" x1="220" y1="190" x2="920" y2="960" gradientUnits="userSpaceOnUse">
      <stop stop-color="rgba(255,255,255,0.17)"/>
      <stop offset="1" stop-color="rgba(255,255,255,0.06)"/>
    </linearGradient>
  </defs>
  <rect width="1200" height="1200" rx="64" fill="url(#bg)"/>
  <rect width="1200" height="1200" rx="64" fill="url(#glow)"/>
  <circle cx="1006" cy="164" r="138" fill="#ffb703" opacity="0.12"/>
  <circle cx="106" cy="980" r="170" fill="#ffd7a1" opacity="0.08"/>
  <rect x="88" y="88" width="1024" height="1024" rx="48" fill="url(#panel)" stroke="rgba(255,255,255,0.12)"/>
  <rect x="112" y="112" width="260" height="60" rx="30" fill="rgba(255,255,255,0.12)" stroke="rgba(255,255,255,0.18)"/>
  <text x="146" y="151" fill="#ffffff" font-size="26" font-weight="700" font-family="Segoe UI, Arial, sans-serif">ÁO • POLO SHIRT</text>
  <text x="112" y="1040" fill="#ffd7a1" font-size="34" font-weight="700" font-family="Segoe UI, Arial, sans-serif">ACTIVEPRO</text>
  <text x="112" y="1082" fill="rgba(255,255,255,0.82)" font-size="22" font-weight="500" font-family="Segoe UI, Arial, sans-serif">Visual description generated for this product</text>
  
      <path d="M348 311 260 373l40 118h68v255h288V491h68l40-118-88-62-72 72-46-58h-96l-46 58-72-72Z" fill="#dff6ff" opacity="0.96"/>
      <path d="m464 324 46 64 46-64" stroke="#3b0d1b" stroke-width="10" fill="none" stroke-linecap="round" stroke-linejoin="round"/>
      <path d="M510 390v356" stroke="#ffb703" stroke-width="12" stroke-linecap="round"/>
    
  <text x="112" y="872" fill="#ffffff" font-size="54" font-weight="800" font-family="Segoe UI, Arial, sans-serif">Áo Polo Training</text><text x="112" y="938" fill="#ffffff" font-size="54" font-weight="800" font-family="Segoe UI, Arial, sans-serif">ActiveLine</text>
  <text x="112" y="996" fill="rgba(255,255,255,0.88)" font-size="28" font-weight="600" font-family="Segoe UI, Arial, sans-serif">Polo shirt</text>
</svg>