<?xml version="1.0" encoding="UTF-8"?>
<svg xmlns="http://www.w3.org/2000/svg" width="1200" height="1200" viewBox="0 0 1200 1200" fill="none">
  <defs>
    <linearGradient id="bg" x1="120" y1="100" x2="1020" y2="1080" gradientUnits="userSpaceOnUse">
      <stop stop-color="#153126"/>
      <stop offset="1" stop-color="#256347"/>
    </linearGradient>
    <radialGradient id="glow" cx="0" cy="0" r="1" gradientUnits="userSpaceOnUse" gradientTransform="translate(352 292) rotate(90) scale(420 420)">
      <stop stop-color="#d9ffcf" stop-opacity="0.58"/>
      <stop offset="1" stop-color="#d9ffcf" stop-opacity="0"/>
    </radialGradient>
    <linearGradient id="panel" x1="220" y1="190" x2="920" y2="960" gradientUnits="userSpaceOnUse">
      <stop stop-color="rgba(255,255,255,0.17)"/>
      <stop offset="1" stop-color="rgba(255,255,255,0.06)"/>
    </linearGradient>
  </defs>
  <rect width="1200" height="1200" rx="64" fill="url(#bg)"/>
  <rect width="1200" height="1200" rx="64" fill="url(#glow)"/>
  <circle cx="1006" cy="164" r="138" fill="#ffe66d" opacity="0.12"/>
  <circle cx="106" cy="980" r="170" fill="#d9ffcf" opacity="0.08"/>
  <rect x="88" y="88" width="1024" height="1024" rx="48" fill="url(#panel)" stroke="rgba(255,255,255,0.12)"/>
  <rect x="112" y="112" width="308" height="60" rx="30" fill="rgba(255,255,255,0.12)" stroke="rgba(255,255,255,0.18)"/>
  <text x="146" y="151" fill="#ffffff" font-size="26" font-weight="700" font-family="Segoe UI, Arial, sans-serif">PHỤ KIỆN • SPORT SOCKS</text>
  <text x="112" y="1040" fill="#d9ffcf" font-size="34" font-weight="700" font-family="Segoe UI, Arial, sans-serif">COMFORTSOCKS</text>
  <text x="112" y="1082" fill="rgba(255,255,255,0.82)" font-size="22" font-weight="500" font-family="Segoe UI, Arial, sans-serif">Visual description generated for this product</text>
  
      <path d="M408 240h88v236c0 39 32 70 70 70h78v70c0 72-58 130-130 130H396c-40 0-72-32-72-72v-90h108c40 0 72-32 72-72V240Z" fill="#ffffff" opacity="0.96"/>
      <path d="M620 286h92v196c0 52 28 88 70 108v54c0 56-46 102-102 102H592c-36 0-66-30-66-66v-66h94c40 0 72-32 72-72V286Z" fill="#ffe66d" opacity="0.35"/>
    
  <text x="112" y="872" fill="#ffffff" font-size="54" font-weight="800" font-family="Segoe UI, Arial, sans-serif">Tất Thể Thao</text><text x="112" y="938" fill="#ffffff" font-size="54" font-weight="800" font-family="Segoe UI, Arial, sans-serif">AirCushion Pack 3</text>
  <text x="112" y="996" fill="rgba(255,255,255,0.88)" font-size="28" font-weight="600" font-family="Segoe UI, Arial, sans-serif">Sport socks</text>
</svg>